<svg width="24" height="24" viewBox="0 0 24 24" fill="none" xmlns="http://www.w3.org/2000/svg">
<path fill-rule="evenodd" clip-rule="evenodd" d="M22.5 11.9995C22.5 17.7982 17.799 22.499 12 22.499C6.201 22.499 1.5 17.7982 1.5 11.9995C1.5 6.20077 6.201 1.5 12 1.5C17.799 1.5 22.5 6.20077 22.5 11.9995ZM18.102 6.08177C17.3104 5.26368 16.3622 4.61343 15.3138 4.16984C14.2654 3.72625 13.1384 3.4984 12 3.4999C10.7497 3.49877 9.51464 3.77401 8.38316 4.30592C7.25168 4.83784 6.25177 5.61328 5.455 6.57675C6.859 5.96278 8.347 5.98878 8.875 5.99778L9 5.99978C9.6 5.99978 10 6.39976 10 6.99973C10 7.5997 9.6 7.99968 9 7.99968C8.4 7.99968 8 8.39966 8 8.99963C8 9.5996 8.6 9.99958 9 9.99958H10C10.55 9.99958 11 10.4496 11 11.0125C10.9966 11.2755 10.8897 11.5265 10.7025 11.7112C10.5154 11.8959 10.263 11.9995 10 11.9995C7.57 11.9995 7.679 13.9994 8 14.6413C8.579 15.7993 10.61 15.4563 11.81 14.6413L12.4 14.1994C12.6122 14.0402 12.8789 13.9719 13.1414 14.0094C13.404 14.0469 13.6409 14.1872 13.8 14.3994C13.9591 14.6115 14.0275 14.8782 13.9899 15.1407C13.9524 15.4033 13.8122 15.6402 13.6 15.7993L13.071 16.1963C10.5 17.9992 13 20.4991 16.43 18.7961C17.999 17.8562 18.589 16.5623 18.704 15.3833C18.7754 14.6129 18.6622 13.8365 18.374 13.1184C18.101 12.4415 17.738 12.0165 17.467 11.8445C17.2841 11.7287 17.1436 11.5567 17.0668 11.3543C16.99 11.1519 16.981 10.93 17.041 10.722C17.1011 10.514 17.2271 10.3311 17.4 10.2009C17.573 10.0706 17.7835 9.99996 18 9.99958C18.21 9.99958 18.51 9.99958 18.856 10.0586C18.8189 9.95227 18.7703 9.85034 18.711 9.75459C18.393 9.22862 17.687 8.57765 16.486 7.85668C16.2987 7.74409 16.1535 7.57327 16.0725 7.37035C15.9916 7.16742 15.9793 6.94355 16.0376 6.73298C16.0958 6.52241 16.2215 6.33672 16.3953 6.20431C16.5691 6.0719 16.7815 6.00006 17 5.99978C17.325 5.99978 17.702 6.01678 18.102 6.08177Z" fill="white"/>
</svg>
