<svg width="24" height="24" viewBox="0 0 24 24" fill="none" xmlns="http://www.w3.org/2000/svg">
<path fill-rule="evenodd" clip-rule="evenodd" d="M6 0C4.93913 0 3.92172 0.421427 3.17157 1.17157C2.42143 1.92172 2 2.93913 2 4V16C2 17.0609 2.42143 18.0783 3.17157 18.8284C3.92172 19.5786 4.93913 20 6 20H18C19.0609 20 20.0783 19.5786 20.8284 18.8284C21.5786 18.0783 22 17.0609 22 16V4C22 2.93913 21.5786 1.92172 20.8284 1.17157C20.0783 0.421427 19.0609 0 18 0H6ZM4 4C4 3.46957 4.21071 2.96086 4.58579 2.58579C4.96086 2.21071 5.46957 2 6 2H18C18.5304 2 19.0391 2.21071 19.4142 2.58579C19.7893 2.96086 20 3.46957 20 4V16C20 16.5304 19.7893 17.0391 19.4142 17.4142C19.0391 17.7893 18.5304 18 18 18H6C5.46957 18 4.96086 17.7893 4.58579 17.4142C4.21071 17.0391 4 16.5304 4 16V4ZM9 9C9 8.73478 8.89464 8.48043 8.70711 8.29289C8.51957 8.10536 8.26522 8 8 8C7.73478 8 7.48043 8.10536 7.29289 8.29289C7.10536 8.48043 7 8.73478 7 9V15C7 15.2652 7.10536 15.5196 7.29289 15.7071C7.48043 15.8946 7.73478 16 8 16C8.26522 16 8.51957 15.8946 8.70711 15.7071C8.89464 15.5196 9 15.2652 9 15V9ZM9.5 5.5C9.5 5.89782 9.34196 6.27936 9.06066 6.56066C8.77936 6.84196 8.39782 7 8 7C7.60218 7 7.22064 6.84196 6.93934 6.56066C6.65804 6.27936 6.5 5.89782 6.5 5.5C6.5 5.10218 6.65804 4.72064 6.93934 4.43934C7.22064 4.15804 7.60218 4 8 4C8.39782 4 8.77936 4.15804 9.06066 4.43934C9.34196 4.72064 9.5 5.10218 9.5 5.5ZM12 8C12.34 8 12.64 8.17 12.82 8.428C13.3354 8.1471 13.913 7.99995 14.5 8C16.66 8 18 9.926 18 11.571V15C18 15.2652 17.8946 15.5196 17.7071 15.7071C17.5196 15.8946 17.2652 16 17 16C16.7348 16 16.4804 15.8946 16.2929 15.7071C16.1054 15.5196 16 15.2652 16 15V11.57C16 10.802 15.34 9.999 14.5 9.999C13.976 9.999 13.397 10.284 13 10.962V15C13 15.2652 12.8946 15.5196 12.7071 15.7071C12.5196 15.8946 12.2652 16 12 16C11.7348 16 11.4804 15.8946 11.2929 15.7071C11.1054 15.5196 11 15.2652 11 15V9C11 8.73478 11.1054 8.48043 11.2929 8.29289C11.4804 8.10536 11.7348 8 12 8Z" fill="white"/>
</svg>
